<?xml version="1.0" encoding="UTF-8"?>
<svg width="48px" height="48px" viewBox="0 0 48 48" version="1.1" xmlns="http://www.w3.org/2000/svg" xmlns:xlink="http://www.w3.org/1999/xlink">
    <title>0A8B93CA-8771-4552-BF14-46128DED49D9</title>
    <g id="Home" stroke="none" stroke-width="1" fill="none" fill-rule="evenodd">
        <g id="1_Home_v3" transform="translate(-533.000000, -557.000000)" fill-rule="nonzero">
            <g id="Group-105" transform="translate(71.000000, 532.000000)">
                <g id="Group-36-Copy-8" transform="translate(441.000000, 0.000000)">
                    <g id="rent" transform="translate(21.000000, 25.000000)">
                        <path d="M40.7204678,20.0109162 L40.7204678,31.1890838 L35.131384,25.6 L35.131384,20.0109162 C35.131384,19.5699497 35.4888581,19.2124756 35.9298246,19.2124756 L39.9220273,19.2124756 C40.3629938,19.2124756 40.7204678,19.5699497 40.7204678,20.0109162 Z" id="Shape" fill="#263A69"></path>
                        <path d="M19.9610136,47.1578947 L9.58128655,47.1578947 L9.58128655,34.7660975 L22.8114464,21.543922 C23.5702442,21.6290865 24.3361885,21.6290865 25.0949864,21.543922 L38.3251462,34.7660975 L38.3251462,47.1578947 L19.9610136,47.1578947 Z" id="Shape" fill="#C7E5F6"></path>
                        <path d="M44.2815127,33.9516881 L41.4550331,36.7701832 C41.1436114,37.0797575 40.6406537,37.0797575 40.329232,36.7701832 L38.3251462,34.7660975 L25.0949864,21.543922 C27.1359396,21.3189429 29.0643142,20.4936875 30.6361637,19.1725536 L35.131384,23.6677739 L44.2815127,32.8179025 C44.5928868,33.131696 44.5928868,33.6378947 44.2815127,33.9516881 L44.2815127,33.9516881 Z" id="Shape" fill="#1A4BB7"></path>
                        <path d="M22.8114464,21.543922 L9.58128655,34.7660975 L7.57720078,36.7701832 C7.26577907,37.0797575 6.76282132,37.0797575 6.45139961,36.7701832 L3.62492008,33.9516881 C3.31354593,33.6378947 3.31354593,33.131696 3.62492008,32.8179025 L17.270269,19.1725536 C18.8421186,20.4936875 20.7704931,21.3189429 22.8114464,21.543922 Z" id="Shape" fill="#1A4BB7"></path>
                        <path d="M27.9454191,43.165692 L27.9454191,47.1578947 L19.9610136,47.1578947 L19.9610136,43.165692 C19.9610136,40.9608594 21.7483837,39.1734893 23.9532164,39.1734893 C26.158049,39.1734893 27.9454191,40.9608594 27.9454191,43.165692 Z" id="Shape" fill="#273879"></path>
                        <path d="M34.3329565,11.2280702 C34.3361399,16.5198292 30.3550338,20.965455 25.0949864,21.543922 C24.3361885,21.6290865 23.5702442,21.6290865 22.8114464,21.543922 C21.4297134,21.3903496 20.0934036,20.9584934 18.8831189,20.2744016 C18.3099794,19.9620253 17.7696528,19.5928913 17.270269,19.1725536 C14.0817589,16.4973108 12.79963,12.1761309 14.0130785,8.19479151 C15.2265271,4.2134521 18.7008652,1.3419672 22.8394772,0.899914035 C26.9780893,0.457860861 30.9805439,2.53073505 33.0075322,6.16595712 C33.8791304,7.71053261 34.3357647,9.45454569 34.3329565,11.2280702 L34.3329565,11.2280702 Z" id="Shape" fill="#E1C686"></path>
                        <path d="M34.3329565,11.2280702 C34.3361399,16.5198292 30.3550338,20.965455 25.0949864,21.543922 C24.3361885,21.6290865 23.5702442,21.6290865 22.8114464,21.543922 C21.4297134,21.3903496 20.0934036,20.9584934 18.8831189,20.2744016 C16.6159431,16.2215519 17.3193372,11.1555918 20.6049172,7.87372643 C23.8904972,4.59186106 28.9572498,3.89419814 33.0075322,6.16595712 C33.8791304,7.71053261 34.3357647,9.45454569 34.3329565,11.2280702 L34.3329565,11.2280702 Z" id="Shape" fill="#DFB34C"></path>
                        <path d="M23.9532164,22.4062378 C23.5437846,22.4047445 23.1347036,22.3820919 22.7276101,22.3383704 C16.8189629,21.6867768 12.4496695,16.5310764 12.7759582,10.5955713 C13.1022469,4.66006612 18.0103464,0.0143659495 23.9548133,0.0143659495 C29.8992801,0.0143659495 34.8073796,4.66006612 35.1336683,10.5955713 C35.459957,16.5310764 31.0906636,21.6867768 25.1820164,22.3383704 C24.7738789,22.3823903 24.3637192,22.4050437 23.9532164,22.4062378 Z M23.9532164,1.64678363 C18.8699433,1.65126058 14.6749355,5.6247119 14.3949165,10.7002685 C14.1148975,15.775825 17.8473447,20.1866349 22.8992749,20.7502721 C23.6007474,20.829318 24.3088792,20.829318 25.0103517,20.7502721 C30.0628856,20.1865567 33.7955001,15.7747939 33.5146015,10.6986762 C33.2337029,5.62255862 29.0370994,1.64957728 23.9532164,1.64678363 Z" id="Shape" fill="#AB8843"></path>
                        <rect id="Rectangle-path" fill="#84B5CB" x="19.9610136" y="27.9953216" width="7.98440546" height="7.98440546" rx="3.99220273"></rect>
                        <polygon id="Shape" fill="#FFFFFF" points="27.9454191 31.1890838 27.9454191 32.7859649 24.7516569 32.7859649 24.7516569 35.9797271 23.1547758 35.9797271 23.1547758 32.7859649 19.9610136 32.7859649 19.9610136 31.1890838 23.1547758 31.1890838 23.1547758 27.9953216 24.7516569 27.9953216 24.7516569 31.1890838"></polygon>
                        <circle id="Oval" fill="#C7E5F6" cx="25.5500975" cy="43.9641326" r="1"></circle>
                        <g id="Group" transform="translate(7.185965, 2.351657)" fill="#F0C419">
                            <path d="M3.19376218,9.6748538 L0.798440546,9.6748538 C0.357474009,9.6748538 0,9.31737975 0,8.87641326 C0,8.43544676 0.357474009,8.07797271 0.798440546,8.07797271 L3.19376218,8.07797271 C3.63472868,8.07797271 3.99220273,8.43544676 3.99220273,8.87641326 C3.99220273,9.31737975 3.63472868,9.6748538 3.19376218,9.6748538 Z" id="Shape"></path>
                            <path d="M32.7360624,9.6748538 L30.3407407,9.6748538 C29.8997742,9.6748538 29.5423002,9.31737975 29.5423002,8.87641326 C29.5423002,8.43544676 29.8997742,8.07797271 30.3407407,8.07797271 L32.7360624,8.07797271 C33.1770289,8.07797271 33.5345029,8.43544676 33.5345029,8.87641326 C33.5345029,9.31737975 33.1770289,9.6748538 32.7360624,9.6748538 Z" id="Shape"></path>
                            <line x1="2.93746277" y1="16.8608187" x2="5.01260975" y2="15.6631579" id="Shape"></line>
                            <path d="M2.93905965,17.6592593 C2.57769496,17.6592593 2.26139034,17.4165241 2.16786118,17.0674729 C2.07433193,16.7184218 2.22689755,16.3500674 2.53983938,16.1693692 L4.6157848,14.9717084 C4.86295835,14.8268039 5.16882424,14.8254474 5.41727331,14.9681538 C5.66572246,15.1108603 5.81866023,15.3757485 5.81803228,15.662265 C5.81740045,15.9487815 5.66329951,16.2129947 5.41422534,16.3546074 L3.33827992,17.5522682 C3.21690363,17.6223531 3.0792171,17.6592593 2.93905965,17.6592593 L2.93905965,17.6592593 Z" id="Shape"></path>
                            <line x1="28.5218932" y1="2.08966862" x2="30.5970402" y2="0.892007797" id="Shape"></line>
                            <path d="M28.5234901,2.88810916 C28.1621254,2.88810916 27.8458208,2.645374 27.7522916,2.29632286 C27.6587623,1.94727173 27.811328,1.57891733 28.1242698,1.3982191 L30.2002152,0.200558285 C30.4473888,0.0556537972 30.7532546,0.0542973026 31.0017037,0.197003739 C31.2501529,0.339710176 31.4030906,0.604598432 31.4024627,0.891114901 C31.4018309,1.17763137 31.2477299,1.44184463 30.9986558,1.58345731 L28.9227103,2.78111813 C28.801334,2.85120301 28.6636475,2.88810916 28.5234901,2.88810916 L28.5234901,2.88810916 Z" id="Shape"></path>
                            <line x1="5.01260975" y1="2.08966862" x2="2.93746277" y2="0.892007797" id="Shape"></line>
                            <path d="M5.01101287,2.88810916 C4.87085541,2.88810916 4.73316889,2.85120301 4.61179259,2.78111813 L2.53584717,1.58345731 C2.28677301,1.44184463 2.13267206,1.17763137 2.13204024,0.891114901 C2.13141229,0.604598432 2.28435006,0.339710176 2.53279921,0.197003739 C2.78124827,0.0542973026 3.08711416,0.0556537972 3.33428772,0.200558285 L5.41023314,1.3982191 C5.72317496,1.57891733 5.87574058,1.94727173 5.78221134,2.29632286 C5.68868217,2.645374 5.37237756,2.88810916 5.01101287,2.88810916 L5.01101287,2.88810916 Z" id="Shape"></path>
                        </g>
                        <path d="M42.3173489,47.9563353 L5.58908382,47.9563353 C5.14811728,47.9563353 4.79064327,47.5988612 4.79064327,47.1578947 C4.79064327,46.7169282 5.14811728,46.3594542 5.58908382,46.3594542 L42.3173489,46.3594542 C42.7583154,46.3594542 43.1157895,46.7169282 43.1157895,47.1578947 C43.1157895,47.5988612 42.7583154,47.9563353 42.3173489,47.9563353 Z" id="Shape" fill="#273879"></path>
                        <path d="M2.39532164,47.9563353 L0.798440546,47.9563353 C0.357474009,47.9563353 0,47.5988612 0,47.1578947 C0,46.7169282 0.357474009,46.3594542 0.798440546,46.3594542 L2.39532164,46.3594542 C2.83628817,46.3594542 3.19376218,46.7169282 3.19376218,47.1578947 C3.19376218,47.5988612 2.83628817,47.9563353 2.39532164,47.9563353 Z" id="Shape" fill="#273879"></path>
                        <path d="M47.1079922,47.9563353 L45.5111111,47.9563353 C45.0701446,47.9563353 44.7126706,47.5988612 44.7126706,47.1578947 C44.7126706,46.7169282 45.0701446,46.3594542 45.5111111,46.3594542 L47.1079922,46.3594542 C47.5489587,46.3594542 47.9064327,46.7169282 47.9064327,47.1578947 C47.9064327,47.5988612 47.5489587,47.9563353 47.1079922,47.9563353 Z" id="Shape" fill="#273879"></path>
                        <path d="M24.7516569,10.5022877 L24.7516569,6.56038674 C25.6401942,6.76196299 26.2900889,7.52428948 26.348538,8.43352827 C26.348538,8.87449476 26.7060121,9.23196881 27.1469786,9.23196881 C27.5879451,9.23196881 27.9454191,8.87449476 27.9454191,8.43352827 C27.8683358,6.64374496 26.5255113,5.16361667 24.7516569,4.9132039 L24.7516569,4.84054581 C24.7516569,4.39957927 24.3941829,4.04210526 23.9532164,4.04210526 C23.5122499,4.04210526 23.1547758,4.39957927 23.1547758,4.84054581 L23.1547758,4.9132039 C21.3809214,5.16361667 20.0380969,6.64374496 19.9610136,8.43352827 C20.0380969,10.2233116 21.3809214,11.7034399 23.1547758,11.9538526 L23.1547758,15.8957536 C22.2662385,15.6941774 21.6163439,14.9318509 21.5578947,14.0226121 C21.5578947,13.5816456 21.2004207,13.2241715 20.7594542,13.2241715 C20.3184877,13.2241715 19.9610136,13.5816456 19.9610136,14.0226121 C20.0380969,15.8123954 21.3809214,17.2925237 23.1547758,17.5429365 L23.1547758,17.6155945 C23.1547758,18.056561 23.5122499,18.4140351 23.9532164,18.4140351 C24.3941829,18.4140351 24.7516569,18.056561 24.7516569,17.6155945 L24.7516569,17.5429365 C26.5255113,17.2925237 27.8683358,15.8123954 27.9454191,14.0226121 C27.8683358,12.2328288 26.5255113,10.7527005 24.7516569,10.5022877 Z M21.5578947,8.43352827 C21.6163439,7.52428948 22.2662385,6.76196299 23.1547758,6.56038674 L23.1547758,10.3066698 C22.2662385,10.1050936 21.6163439,9.34276705 21.5578947,8.43352827 Z M24.7516569,15.8957536 L24.7516569,12.1494706 C25.6401942,12.3510468 26.2900889,13.1133733 26.348538,14.0226121 C26.2900889,14.9318509 25.6401942,15.6941774 24.7516569,15.8957536 Z" id="Shape" fill="#FFFFFF"></path>
                    </g>
                </g>
            </g>
        </g>
    </g>
</svg>