<?xml version="1.0" encoding="UTF-8"?>
<svg width="76px" height="66px" viewBox="0 0 76 66" version="1.1" xmlns="http://www.w3.org/2000/svg" xmlns:xlink="http://www.w3.org/1999/xlink">
    <title>63D118D4-FAC3-4554-9350-4748BADCC0D9</title>
    <g id="Home" stroke="none" stroke-width="1" fill="none" fill-rule="evenodd">
        <g id="1_Home_v3" transform="translate(-970.000000, -550.000000)" fill-rule="nonzero">
            <g id="Group-105" transform="translate(71.000000, 532.000000)">
                <g id="Group-36-Copy-7" transform="translate(881.000000, 0.000000)">
                    <g id="Group-3" transform="translate(18.000000, 18.000000)">
                        <g id="key" transform="translate(29.257074, 48.301981) rotate(13.000000) translate(-29.257074, -48.301981) translate(2.257074, 36.801981)">
                            <path d="M47.5633064,2.38849286 L47.5681196,2.39786152 L40.5424712,6.08672773 L39.3757814,6.68397278 C39.2015481,5.62673202 38.65382,4.66177144 37.8269334,3.95585122 L42.3440059,1.58607664 L43.4924061,0.98414737 C44.9132264,0.283848278 46.7758871,1.04035867 47.5633064,2.38849286 L47.5633064,2.38849286 Z" id="Path" fill="#4E90F4"></path>
                            <path d="M42.2886556,1.4853647 L42.3440059,1.58607664 L37.8269334,3.95585122 C36.9639487,3.2124568 35.8506841,2.80351965 34.6984334,2.80586176 L33.2862768,2.80586176 L37.0419205,0.818792505 C38.7443057,-0.141483862 40.8967137,0.132077779 42.2886556,1.4853647 L42.2886556,1.4853647 Z" id="Path" fill="#4E90F4"></path>
                            <path d="M48.4123332,1.95426068 C50.2153118,1.00663189 52.4654253,1.60528213 53.5218955,3.31410553 L36.9620235,14.380236 C34.7297184,15.4557455 32.2014092,15.8037871 29.7501092,15.371897 L20.177862,13.6560472 C19.2970689,13.4405706 18.3652572,13.560488 17.5730248,13.9914413 L12.389341,17.1814324 L8.76653819,5.62017398 L8.79734188,5.61080543 C9.91493825,5.41031847 10.9540816,4.91519067 11.8026269,4.17975949 L13.3885358,2.80586176 C16.561316,0.481993126 20.802118,0.0786771073 24.3767902,1.76126857 L25.0337752,2.0704307 C26.0608857,2.55478464 27.1881084,2.80633028 28.3297702,2.80586176 L34.6984334,2.80586176 C37.0236309,2.80726707 39.0046933,4.45004223 39.3757814,6.68397278 L40.5424712,6.08672773 L47.5681196,2.39786152 L48.4123332,1.95426068 Z" id="Path" fill="#C7E5F6"></path>
                            <path d="M39.4349823,8.13469262 C39.4239123,8.13469262 39.4123609,8.13469262 39.4012908,8.13422422 L33.9678084,7.89438936 C32.3780491,7.8241253 30.7858833,7.89579467 29.2096006,8.10752389 C28.9468067,8.14546648 28.68305,8.04334923 28.5189241,7.83958337 C28.3552795,7.6358174 28.3162936,7.36225576 28.4173681,7.12288929 C28.5179615,6.88352295 28.7432135,6.71535745 29.0069701,6.68209907 C30.6722947,6.4586592 32.3549464,6.38324229 34.0342288,6.45678549 L38.6196471,6.65914616 C38.2466337,4.83883696 36.6058558,3.52724006 34.6984334,3.52536635 L28.3297702,3.52536635 C27.076445,3.52396103 25.8399656,3.24805729 24.7112991,2.71826579 L24.0547953,2.40863527 C20.7405106,0.839403313 16.8029325,1.20805564 13.8568482,3.3632905 L12.2945234,4.71751434 C11.3449034,5.54007285 10.1815826,6.09375418 8.93162663,6.31813096 C8.66979525,6.36918953 8.40026295,6.27878306 8.22602963,6.08204352 C8.05227746,5.88530398 8.00029636,5.61267914 8.09126348,5.36816006 C8.18174932,5.12410926 8.40026295,4.94610694 8.66353828,4.9030115 C9.64781246,4.72641437 10.563741,4.29077689 11.3112118,3.64294167 L12.8971207,2.26857542 C12.9120412,2.25545957 12.9279243,2.242812 12.9438075,2.23110123 C16.3341388,-0.264680316 20.8767207,-0.696101983 24.698785,1.11343335 L25.35577,1.42306388 C26.2832499,1.85870148 27.2997717,2.08542037 28.3297702,2.08635717 L34.6984334,2.08635717 C36.1510201,2.08495186 37.5448871,2.64565962 38.5719977,3.64528378 C39.5995896,4.64537645 40.1757149,6.001474 40.1742736,7.41565655 C40.1742736,7.81288304 39.8431312,8.13516114 39.4349823,8.13516114 L39.4349823,8.13469262 Z" id="Path" fill="#4E90F4"></path>
                            <polygon id="Path" fill="#273879" points="12.389341 17.1814324 14.05996 22.5154158 2.55526245 22.5154158 0 2.11399442 7.66867527 2.11399442 8.76653819 5.62017398"></polygon>
                            <path d="M7.70477338,21.1579131 C6.44904167,21.1579131 5.43107589,20.167189 5.43107589,18.9455302 C5.43107589,17.7234029 6.44904167,16.7331472 7.70477338,16.7331472 C8.96002381,16.7331472 9.97798959,17.7234029 9.97798959,18.9455302 C9.97702691,20.1667206 8.95954254,21.1569762 7.70477338,21.1579131 L7.70477338,21.1579131 Z M7.70477338,18.1721564 C7.26582077,18.1721564 6.90965309,18.5183243 6.90965309,18.9455302 C6.90965309,19.372736 7.26582077,19.7189039 7.70477338,19.7189039 C8.14372598,19.7189039 8.49941239,19.372736 8.49941239,18.9455302 C8.49893099,18.5183243 8.14324471,18.1721564 7.70477338,18.1721564 Z" id="Shape" fill="#C7E5F6"></path>
                        </g>
                        <g id="key-copy" transform="translate(46.388046, 17.753529) scale(-1, -1) rotate(13.000000) translate(-46.388046, -17.753529) translate(19.388046, 6.253529)">
                            <path d="M47.5633064,2.38849286 L47.5681196,2.39786152 L40.5424712,6.08672773 L39.3757814,6.68397278 C39.2015481,5.62673202 38.65382,4.66177144 37.8269334,3.95585122 L42.3440059,1.58607664 L43.4924061,0.98414737 C44.9132264,0.283848278 46.7758871,1.04035867 47.5633064,2.38849286 L47.5633064,2.38849286 Z" id="Path" fill="#4E90F4"></path>
                            <path d="M42.2886556,1.4853647 L42.3440059,1.58607664 L37.8269334,3.95585122 C36.9639487,3.2124568 35.8506841,2.80351965 34.6984334,2.80586176 L33.2862768,2.80586176 L37.0419205,0.818792505 C38.7443057,-0.141483862 40.8967137,0.132077779 42.2886556,1.4853647 L42.2886556,1.4853647 Z" id="Path" fill="#4E90F4"></path>
                            <path d="M48.4123332,1.95426068 C50.2153118,1.00663189 52.4654253,1.60528213 53.5218955,3.31410553 L36.9620235,14.380236 C34.7297184,15.4557455 32.2014092,15.8037871 29.7501092,15.371897 L20.177862,13.6560472 C19.2970689,13.4405706 18.3652572,13.560488 17.5730248,13.9914413 L12.389341,17.1814324 L8.76653819,5.62017398 L8.79734188,5.61080543 C9.91493825,5.41031847 10.9540816,4.91519067 11.8026269,4.17975949 L13.3885358,2.80586176 C16.561316,0.481993126 20.802118,0.0786771073 24.3767902,1.76126857 L25.0337752,2.0704307 C26.0608857,2.55478464 27.1881084,2.80633028 28.3297702,2.80586176 L34.6984334,2.80586176 C37.0236309,2.80726707 39.0046933,4.45004223 39.3757814,6.68397278 L40.5424712,6.08672773 L47.5681196,2.39786152 L48.4123332,1.95426068 Z" id="Path" fill="#C7E5F6"></path>
                            <path d="M39.4349823,8.13469262 C39.4239123,8.13469262 39.4123609,8.13469262 39.4012908,8.13422422 L33.9678084,7.89438936 C32.3780491,7.8241253 30.7858833,7.89579467 29.2096006,8.10752389 C28.9468067,8.14546648 28.68305,8.04334923 28.5189241,7.83958337 C28.3552795,7.6358174 28.3162936,7.36225576 28.4173681,7.12288929 C28.5179615,6.88352295 28.7432135,6.71535745 29.0069701,6.68209907 C30.6722947,6.4586592 32.3549464,6.38324229 34.0342288,6.45678549 L38.6196471,6.65914616 C38.2466337,4.83883696 36.6058558,3.52724006 34.6984334,3.52536635 L28.3297702,3.52536635 C27.076445,3.52396103 25.8399656,3.24805729 24.7112991,2.71826579 L24.0547953,2.40863527 C20.7405106,0.839403313 16.8029325,1.20805564 13.8568482,3.3632905 L12.2945234,4.71751434 C11.3449034,5.54007285 10.1815826,6.09375418 8.93162663,6.31813096 C8.66979525,6.36918953 8.40026295,6.27878306 8.22602963,6.08204352 C8.05227746,5.88530398 8.00029636,5.61267914 8.09126348,5.36816006 C8.18174932,5.12410926 8.40026295,4.94610694 8.66353828,4.9030115 C9.64781246,4.72641437 10.563741,4.29077689 11.3112118,3.64294167 L12.8971207,2.26857542 C12.9120412,2.25545957 12.9279243,2.242812 12.9438075,2.23110123 C16.3341388,-0.264680316 20.8767207,-0.696101983 24.698785,1.11343335 L25.35577,1.42306388 C26.2832499,1.85870148 27.2997717,2.08542037 28.3297702,2.08635717 L34.6984334,2.08635717 C36.1510201,2.08495186 37.5448871,2.64565962 38.5719977,3.64528378 C39.5995896,4.64537645 40.1757149,6.001474 40.1742736,7.41565655 C40.1742736,7.81288304 39.8431312,8.13516114 39.4349823,8.13516114 L39.4349823,8.13469262 Z" id="Path" fill="#4E90F4"></path>
                            <polygon id="Path" fill="#273879" points="12.389341 17.1814324 14.05996 22.5154158 2.55526245 22.5154158 0 2.11399442 7.66867527 2.11399442 8.76653819 5.62017398"></polygon>
                            <path d="M7.70477338,21.1579131 C6.44904167,21.1579131 5.43107589,20.167189 5.43107589,18.9455302 C5.43107589,17.7234029 6.44904167,16.7331472 7.70477338,16.7331472 C8.96002381,16.7331472 9.97798959,17.7234029 9.97798959,18.9455302 C9.97702691,20.1667206 8.95954254,21.1569762 7.70477338,21.1579131 L7.70477338,21.1579131 Z M7.70477338,18.1721564 C7.26582077,18.1721564 6.90965309,18.5183243 6.90965309,18.9455302 C6.90965309,19.372736 7.26582077,19.7189039 7.70477338,19.7189039 C8.14372598,19.7189039 8.49941239,19.372736 8.49941239,18.9455302 C8.49893099,18.5183243 8.14324471,18.1721564 7.70477338,18.1721564 Z" id="Shape" fill="#C7E5F6"></path>
                        </g>
                        <g id="Group-2" transform="translate(28.000000, 21.380952)">
                            <path d="M19.4494272,4.25643694 C19.4513574,4.11874727 19.3952622,3.98614434 19.2939288,3.88845519 C19.1925955,3.79088161 19.0544685,3.73643004 18.9107923,3.73758611 L16.2816746,3.73504274 C16.208208,3.74833769 16.1413762,3.78452316 16.0914333,3.83781866 L10.2677821,9.41870216 C8.10805492,8.77880927 5.77135631,9.63234662 4.6039721,11.4875158 C3.43658789,13.342685 3.73938158,15.7215606 5.33791501,17.2534885 C6.93632785,18.7854164 9.41875343,19.0755937 11.3545822,17.9568505 C13.2904109,16.8381073 14.1810586,14.5986555 13.5132236,12.528917 L14.0921506,11.9742275 C14.1261697,11.940701 14.1437824,11.8949201 14.1404046,11.8483299 L14.0090332,10.4820689 C14.0049316,10.4352475 14.0225443,10.3892353 14.0571665,10.3560557 C14.0917887,10.3228761 14.1398014,10.3059972 14.1886586,10.3099279 L15.4938079,10.4255364 C15.5424238,10.4290046 15.5903158,10.4120102 15.6248174,10.3789462 C15.659319,10.3458822 15.6770524,10.3001012 15.6733127,10.2533954 L15.5526777,9.00262728 C15.5485761,8.95592145 15.5661888,8.90979366 15.6008111,8.87661403 C15.6354333,8.84355002 15.6835666,8.82667116 15.7323031,8.83060187 L17.0374525,8.94621034 C17.0860683,8.94967858 17.1339604,8.93268416 17.168462,8.89962012 C17.2029636,8.86655608 17.2206969,8.82065952 17.2169572,8.7740693 L17.0990969,7.51821446 C17.0949953,7.47208667 17.1122461,7.42665255 17.1463858,7.39393534 C17.1805255,7.36133377 17.227935,7.34468615 17.2759477,7.34873242 L18.7096939,7.47197107 C18.7577066,7.47590175 18.8049954,7.45890729 18.8384113,7.42572768 L19.3797003,6.89150093 C19.4278336,6.84306097 19.4547352,6.77866706 19.4547352,6.71172974 L19.4494272,4.25643694 Z M8.35161685,16.1426067 C7.97656283,16.5020334 7.41259456,16.6095493 6.92257546,16.4149802 C6.43243573,16.2205268 6.11299443,15.7622548 6.11299443,15.2539243 C6.11299443,14.7455939 6.43243573,14.2874375 6.92257546,14.0928684 C7.41259456,13.8982994 7.97656283,14.0059308 8.35161685,14.3653576 C8.86347084,14.8562312 8.86347084,15.6517331 8.35161685,16.1426067 L8.35161685,16.1426067 Z" id="Shape" fill="#F0C419" transform="translate(11.676086, 11.184495) rotate(-315.000000) translate(-11.676086, -11.184495) "></path>
                            <path d="M19.7883026,3.71803886 L8.84864464,14.6576969 C8.35473507,14.192981 7.56366651,14.2212648 7.06327282,14.7216585 C6.56299724,15.2220497 6.53459775,16.0130026 6.9994318,16.5069097 L5.83626979,17.6700717 C5.72083475,17.551862 5.61064731,17.4256302 5.50334251,17.2915444 C4.22810566,15.6647774 4.19704216,13.351301 5.4266539,11.5843411 C6.65626564,9.81738113 8.8599768,9.00871744 10.8632857,9.58925795 L16.6869344,3.76572483 C16.7369954,3.71023026 16.8032215,3.67186582 16.8754466,3.65675129 L19.4497357,3.60457666 C19.5740198,3.60098778 19.6939511,3.6410587 19.7883026,3.71803886 Z" id="Path" fill="#F0C419" transform="translate(12.156774, 10.637213) rotate(-315.000000) translate(-12.156774, -10.637213) "></path>
                            <g id="Group" transform="translate(15.551033, 10.761717) rotate(-315.000000) translate(-15.551033, -10.761717) translate(12.551033, 7.761717)" fill="#FFFFFF">
                                <path d="M0.273117482,5.13891268 C0.16478733,5.13891268 0.0670730212,5.07625251 0.0255746052,4.98029749 C-0.0159238108,4.88434244 0.00699681051,4.77393637 0.0835999989,4.70052498 L4.25636225,0.701627826 C4.32367652,0.635152975 4.42320033,0.608563011 4.51681304,0.632031539 C4.61030512,0.655615668 4.6834099,0.725558787 4.70789877,0.815270964 C4.73250833,0.904867539 4.70476228,1.00024452 4.63527656,1.06475404 L0.462634965,5.06365119 C0.412450834,5.11185992 0.344171448,5.13902792 0.273117482,5.13891268 L0.273117482,5.13891268 Z" id="Path"></path>
                                <path d="M5.41518137,0.260234684 C5.41518137,0.118498679 5.29527027,0.00346826904 5.1472512,0.00346826904 C4.99923213,0.00346826904 4.8792004,0.118498679 4.8792004,0.260234684 C4.8792004,0.40208629 4.99923213,0.5171167 5.1472512,0.5171167 C5.29527027,0.5171167 5.41518137,0.40208629 5.41518137,0.260234684 L5.41518137,0.260234684 Z" id="Path"></path>
                            </g>
                        </g>
                    </g>
                </g>
            </g>
        </g>
    </g>
</svg>