<?xml version="1.0" encoding="UTF-8"?>
<svg width="41px" height="41px" viewBox="0 0 41 41" version="1.1" xmlns="http://www.w3.org/2000/svg" xmlns:xlink="http://www.w3.org/1999/xlink">
    <title>25776383-FE3E-4BB6-805B-D505D0CE1441</title>
    <defs>
        <filter id="filter-1">
            <feColorMatrix in="SourceGraphic" type="matrix" values="0 0 0 0 0.101961 0 0 0 0 0.294118 0 0 0 0 0.717647 0 0 0 1.000000 0"></feColorMatrix>
        </filter>
    </defs>
    <g id="Home" stroke="none" stroke-width="1" fill="none" fill-rule="evenodd">
        <g id="1_Home_v3" transform="translate(-97.000000, -644.000000)">
            <g id="Group-105" transform="translate(71.000000, 532.000000)">
                <g id="Group-103" transform="translate(18.000000, 101.000000)">
                    <g id="Group-78" transform="translate(8.000000, 11.000000)">
                        <circle id="Oval" fill-opacity="0.2" fill="#84A1E0" cx="20.5" cy="20.5" r="20.5"></circle>
                        <g filter="url(#filter-1)" id="stats-chart">
                            <g transform="translate(12.000000, 10.000000)">
                                <path d="M2.42307692,20.7692308 L1.03846154,20.7692308 C0.464935067,20.7692308 0,20.3042957 0,19.7307692 L0,13.5 C0,12.9264735 0.464935067,12.4615385 1.03846154,12.4615385 L2.42307692,12.4615385 C2.99660339,12.4615385 3.46153846,12.9264735 3.46153846,13.5 L3.46153846,19.7307692 C3.46153846,20.3042957 2.99660339,20.7692308 2.42307692,20.7692308 L2.42307692,20.7692308 Z" id="Path" fill="#000000" fill-rule="nonzero"></path>
                                <path d="M12.1153846,20.7692308 L10.7307692,20.7692308 C10.1572428,20.7692308 9.69230769,20.3042957 9.69230769,19.7307692 L9.69230769,9.34615385 C9.69230769,8.77262738 10.1572428,8.30769231 10.7307692,8.30769231 L12.1153846,8.30769231 C12.6889111,8.30769231 13.1538462,8.77262738 13.1538462,9.34615385 L13.1538462,19.7307692 C13.1538462,20.3042957 12.6889111,20.7692308 12.1153846,20.7692308 L12.1153846,20.7692308 Z" id="Path" fill="#000000" fill-rule="nonzero"></path>
                                <path d="M16.9615385,20.7692308 L15.5769231,20.7692308 C15.0033966,20.7692308 14.5384615,20.3042957 14.5384615,19.7307692 L14.5384615,4.5 C14.5384615,3.92647353 15.0033966,3.46153846 15.5769231,3.46153846 L16.9615385,3.46153846 C17.5350649,3.46153846 18,3.92647353 18,4.5 L18,19.7307692 C18,20.3042957 17.5350649,20.7692308 16.9615385,20.7692308 Z" id="Path" fill="#000000" fill-rule="nonzero"></path>
                                <path d="M7.26923077,20.7692308 L5.88461538,20.7692308 C5.31108891,20.7692308 4.84615385,20.3042957 4.84615385,19.7307692 L4.84615385,1.03846154 C4.84615385,0.464935067 5.31108891,0 5.88461538,0 L7.26923077,0 C7.84275724,0 8.30769231,0.464935067 8.30769231,1.03846154 L8.30769231,19.7307692 C8.30769231,20.3042957 7.84275724,20.7692308 7.26923077,20.7692308 Z" id="Path" fill="#000000" fill-rule="nonzero"></path>
                            </g>
                        </g>
                    </g>
                </g>
            </g>
        </g>
    </g>
</svg>